<?xml version="1.0" encoding="UTF-8" standalone="no"?>
<!-- Created with Inkscape (http://www.inkscape.org/) -->

<svg
   width="61.176491mm"
   height="50.986656mm"
   viewBox="0 0 61.176491 50.986656"
   version="1.1"
   id="svg75481"
   inkscape:version="1.2.2 (b0a8486, 2022-12-01)"
   sodipodi:docname="banner2.svg"
   xmlns:inkscape="http://www.inkscape.org/namespaces/inkscape"
   xmlns:sodipodi="http://sodipodi.sourceforge.net/DTD/sodipodi-0.dtd"
   xmlns="http://www.w3.org/2000/svg"
   xmlns:svg="http://www.w3.org/2000/svg">
  <sodipodi:namedview
     id="namedview75483"
     pagecolor="#ffffff"
     bordercolor="#000000"
     borderopacity="0.25"
     inkscape:showpageshadow="2"
     inkscape:pageopacity="0.0"
     inkscape:pagecheckerboard="0"
     inkscape:deskcolor="#d1d1d1"
     inkscape:document-units="mm"
     showgrid="false"
     inkscape:zoom="0.78127806"
     inkscape:cx="-298.22929"
     inkscape:cy="343.66766"
     inkscape:window-width="1390"
     inkscape:window-height="1027"
     inkscape:window-x="67"
     inkscape:window-y="25"
     inkscape:window-maximized="0"
     inkscape:current-layer="layer1" />
  <defs
     id="defs75478" />
  <g
     inkscape:label="Layer 1"
     inkscape:groupmode="layer"
     id="layer1"
     transform="translate(-133.65919,-57.815681)">
    <g
       id="g73999"
       transform="translate(47.013166,-132.25541)"
       inkscape:export-filename="banner2.png"
       inkscape:export-xdpi="96"
       inkscape:export-ydpi="96">
      <rect
         style="fill:#c0daff;fill-opacity:1;stroke:none;stroke-width:0.433589;stroke-miterlimit:1;stroke-opacity:1"
         id="rect39364-0"
         width="57.232105"
         height="39.511707"
         x="90.590408"
         y="190.07109"
         ry="4.8509951" />
      <path
         id="rect57789"
         style="fill:#44aa00;stroke-width:0.995846;stroke-miterlimit:1"
         d="m 110.02507,193.72708 9.28268,13.14698 8.32242,-12.08103 16.64481,31.28051 H 94.660634 Z"
         sodipodi:nodetypes="cccccc" />
      <g
         id="g58409"
         transform="matrix(1.1915254,0,0,1.1915254,-103.80712,-28.327108)">
        <g
           transform="matrix(0.00549065,0,0,-0.00549065,126.34731,288.67965)"
           id="g936"
           style="fill:#aaffee;fill-opacity:1">
          <path
             id="path938"
             style="fill:#aaffee;fill-opacity:1;fill-rule:nonzero;stroke:none"
             d="m 12276.3,14978.5 c -30.8,0 -55.9,25 -55.9,55.8 v 1154 h -614.1 c -30.9,0 -55.8,25 -55.8,55.9 0,30.8 24.9,55.8 55.8,55.8 h 670 c 30.9,0 55.8,-25 55.8,-55.8 v -1209.9 c 0,-30.8 -24.9,-55.8 -55.8,-55.8" />
        </g>
        <g
           transform="matrix(0.00549065,0,0,-0.00549065,126.34731,288.67965)"
           id="g940"
           style="fill:#aaffee;fill-opacity:1">
          <path
             id="path942"
             style="fill:#aaffee;fill-opacity:1;fill-rule:nonzero;stroke:none"
             d="m 10042.9,14978.5 c -30.9,0 -55.87,25 -55.87,55.8 v 1209.9 c 0,30.8 24.97,55.8 55.87,55.8 h 670 c 30.9,0 55.8,-25 55.8,-55.8 0,-30.9 -24.9,-55.9 -55.8,-55.9 h -614.2 v -1154 c 0,-30.8 -25,-55.8 -55.8,-55.8" />
        </g>
        <g
           transform="matrix(0.00485553,0,0,-0.00485553,126.34731,288.67965)"
           id="g944"
           style="fill:#aaffee;fill-opacity:1">
          <path
             id="path946"
             style="fill:#aaffee;fill-opacity:1;fill-rule:nonzero;stroke:none"
             d="m 12619.3,15843.3 c -13.9,0 -27.9,4.6 -39.5,13.8 l -402.8,322.5 c -27.3,21.8 -31.7,61.5 -9.8,88.7 21.7,27.3 61.4,31.7 88.7,9.9 l 363.4,-290.9 327.5,263.9 c 27.3,21.8 67,17.4 88.7,-9.8 21.9,-27.3 17.5,-67 -9.8,-88.8 l -366.9,-295.5 c -11.6,-9.2 -25.6,-13.8 -39.5,-13.8" />
        </g>
        <g
           transform="matrix(0.00513326,0,0,-0.00513326,126.34731,288.67965)"
           id="g948"
           style="fill:#80b3ff">
          <path
             id="path950"
             style="fill:#80b3ff;fill-opacity:1;fill-rule:nonzero;stroke:none"
             d="m 13310.1,16061.1 -268.7,-171.9 -268.7,-67 -310,78.3 -227.6,160.6 268.8,119.5 268.8,119.4 179.1,-79.6 179.1,-79.7 89.7,-39.8 89.5,-39.8" />
        </g>
        <g
           transform="matrix(0.00513326,0,0,-0.00513326,126.34731,288.67965)"
           id="g952">
          <path
             id="path954"
             style="fill:#ee2347;fill-opacity:1;fill-rule:nonzero;stroke:none"
             d="m 11637.8,16061.1 -238.9,-169 -298.6,-69.9 -297.9,81.9 -239.6,157 89.6,39.8 89.6,39.8 179.1,79.7 179.2,79.6 268.8,-119.4 268.7,-119.5" />
        </g>
        <g
           transform="matrix(0.0056035,0,0,-0.0056035,126.34731,288.67965)"
           id="g956">
          <path
             id="path958"
             style="fill:#edc927;fill-opacity:1;fill-rule:nonzero;stroke:none"
             d="m 11427.3,16081.1 -246.3,-157.5 -246.2,-61.3 -246.1,44.9 -246.3,173.9 246.3,109.5 246.1,109.4 246.2,-109.4 246.3,-109.5" />
        </g>
        <g
           transform="matrix(0.00505806,0,0,-0.00505806,126.34731,288.67965)"
           id="g960">
          <path
             id="path962"
             style="fill:#e71d3b;fill-opacity:1;fill-rule:nonzero;stroke:none"
             d="m 11265.4,16057.5 64.3,-417.8 -64.3,-370.1 -272.7,121.2 -272.7,121.2 v 394 394 l 272.7,-121.2 272.7,-121.3" />
        </g>
        <g
           transform="matrix(0.00505806,0,0,-0.00505806,126.34731,288.67965)"
           id="g964">
          <path
             id="path966"
             style="fill:#bd2036;fill-opacity:1;fill-rule:nonzero;stroke:none"
             d="m 11810.9,16300 v -788 l -545.5,-242.4 v 787.9 l 545.5,242.5" />
        </g>
        <g
           transform="matrix(0.00505806,0,0,-0.00505806,126.34731,288.67965)"
           id="g968"
           style="fill:#5599ff">
          <path
             id="path970"
             style="fill:#5599ff;fill-opacity:1;fill-rule:nonzero;stroke:none"
             d="m 12962.6,16057.5 67.4,-380.5 -67.4,-407.4 -272.8,121.2 -272.7,121.2 v 394 394 l 272.7,-121.2 272.8,-121.3" />
        </g>
        <g
           transform="matrix(0.00505806,0,0,-0.00505806,126.34731,288.67965)"
           id="g972"
           style="fill:#2a7fff">
          <path
             id="path974"
             style="fill:#2a7fff;fill-opacity:1;fill-rule:nonzero;stroke:none"
             d="m 13508.1,16300 v -788 l -545.5,-242.4 v 787.9 l 545.5,242.5" />
        </g>
        <g
           transform="matrix(0.00552825,0,0,-0.00552825,126.34731,288.67965)"
           id="g976">
          <path
             id="path978"
             style="fill:#f0ac1c;fill-opacity:1;fill-rule:nonzero;stroke:none"
             d="m 11083.6,16078.2 50.6,-360.5 -50.6,-360.5 -249.5,110.9 -249.6,111 c 0,33 0,196.3 0,360.4 0,157 0,314.9 0,360.5 l 249.6,-110.9 249.5,-110.9" />
        </g>
        <g
           transform="matrix(0.00552825,0,0,-0.00552825,126.34731,288.67965)"
           id="g980">
          <path
             id="path982"
             style="fill:#f57621;fill-opacity:1;fill-rule:nonzero;stroke:none"
             d="m 11582.8,15579.1 -499.2,-221.9 v 721 l 499.2,221.8 c 0,-93.3 0,-656.2 0,-720.9" />
        </g>
      </g>
      <g
         id="g58359"
         transform="matrix(0.70932963,0,0,0.73906451,-17.994764,24.350217)">
        <g
           transform="matrix(0.01079672,0,0,-0.01079672,99.732874,404.24013)"
           id="g1168">
          <path
             id="path1170"
             style="fill:#ee2347;fill-opacity:1;fill-rule:nonzero;stroke:none"
             d="m 9256.98,15517.9 c 0,272.8 -221.14,493.9 -493.96,493.9 -272.82,0 -493.9,-221.1 -493.9,-493.9 0,-272.8 221.08,-493.9 493.9,-493.9 272.82,0 493.96,221.1 493.96,493.9 z m 269.4,18.7 c 0,-233.9 -105.18,-443.2 -270.84,-583.2 -299.38,-253 -388.39,-482 -492.52,-629.1 -104.72,148.1 -193.73,377 -491.99,628.7 -167.24,141.1 -272.95,352.7 -271.37,588.9 2.89,420.8 342.63,758.1 763.36,758.1 421.58,0 763.36,-341.8 763.36,-763.4" />
        </g>
        <rect
           style="fill:#ee2347;fill-opacity:1;stroke:none;stroke-width:0.411261;stroke-miterlimit:1;stroke-opacity:1"
           id="rect58192"
           width="12.51468"
           height="2.5032501"
           x="286.33182"
           y="91.355515"
           transform="matrix(0.83908275,0.5440038,-0.54376854,0.83923523,0,0)" />
        <g
           id="g58350"
           transform="translate(15.578107,-12.36089)">
          <path
             id="path1174"
             style="fill:#619dda;fill-opacity:1;fill-rule:nonzero;stroke:none;stroke-width:0.010482"
             d="m 182.44887,248.59794 c -0.12139,0 -0.24266,-0.0461 -0.33501,-0.13836 -1.84536,-1.84589 -4.84908,-1.84589 -6.69454,0 -0.18449,0.18448 -0.48469,0.18448 -0.66928,0 -0.18522,-0.18554 -0.18522,-0.48532 0,-0.6698 2.21453,-2.21485 5.81867,-2.21485 8.0332,0 0.18522,0.18448 0.18522,0.48426 0,0.6698 -0.0922,0.0922 -0.21299,0.13836 -0.33437,0.13836" />
          <path
             id="path1178"
             style="fill:#388ed4;fill-opacity:1;fill-rule:nonzero;stroke:none;stroke-width:0.0103062"
             d="m 180.81197,250.23494 c -0.12141,0 -0.24199,-0.0464 -0.33505,-0.13913 -0.45636,-0.45657 -1.06391,-0.70804 -1.71052,-0.70804 -0.64589,0 -1.25344,0.25147 -1.71052,0.70804 -0.1852,0.18551 -0.48481,0.18551 -0.66929,0 -0.1852,-0.18449 -0.1852,-0.4844 -7.2e-4,-0.66888 0.63589,-0.63589 1.48131,-0.9863 2.38053,-0.9863 0.89932,0 1.74463,0.35041 2.38063,0.9863 0.18448,0.18448 0.18448,0.48439 0,0.66888 -0.0931,0.0927 -0.21365,0.13913 -0.33506,0.13913" />
          <path
             id="path1182"
             style="fill:#619dda;fill-opacity:1;fill-rule:nonzero;stroke:none;stroke-width:0.0101868"
             d="m 179.43596,251.61098 c -0.12061,0 -0.24204,-0.0469 -0.33433,-0.13854 -0.0893,-0.0897 -0.20863,-0.13956 -0.33495,-0.13956 -0.12641,0 -0.24489,0.0499 -0.33433,0.13956 -0.18519,0.18438 -0.48479,0.18438 -0.66998,0 -0.18459,-0.1854 -0.18459,-0.48489 0,-0.67029 0.26821,-0.26792 0.62526,-0.41563 1.00431,-0.41563 0.37967,0 0.736,0.14771 1.00432,0.41563 0.18449,0.1854 0.18449,0.48489 0,0.67029 -0.0923,0.0917 -0.21361,0.13854 -0.33504,0.13854" />
        </g>
      </g>
      <g
         id="g4734-4-3"
         transform="translate(53.592227,180.1235)">
        <g
           id="g4357-3-6-8"
           transform="rotate(-2.4117012,134.05825,1305.631)">
          <path
             style="fill:#008000;fill-opacity:1;stroke-width:0.499999;stroke-miterlimit:1"
             id="path4204-0-7-7"
             d="m 92.733723,42.029241 c -0.169578,0.05966 -0.352002,0.09094 -0.50874,0.178969 -0.439676,0.246923 -1.129905,0.865312 -1.460162,1.191369 -0.574095,0.566795 -1.158018,1.252111 -1.644267,1.892665 -0.263291,0.346848 -0.50384,0.710385 -0.75576,1.065578 -0.847278,1.345747 -1.53652,2.792163 -2.043839,4.299847 -0.187928,0.558498 -0.307653,1.047033 -0.456141,1.611214 -0.04563,0.191471 -0.09127,0.382942 -0.136897,0.574411 l 1.801349,0.03374 v 0 c 0.02659,-0.189698 0.05322,-0.379396 0.07982,-0.569094 0.131738,-0.68657 0.155928,-0.891866 0.361274,-1.595115 0.439702,-1.505842 1.09547,-2.941201 1.947679,-4.258609 0.252325,-0.351383 0.490753,-0.713171 0.756971,-1.054153 0.50662,-0.648899 1.100926,-1.309756 1.717612,-1.858251 0.506426,-0.450427 1.011348,-0.831448 1.63268,-1.10391 1.095137,-0.223538 -0.430772,-0.183676 -0.82786,-0.198705 -0.146229,-0.0055 0.293701,-5.17e-4 0.43853,0.02029 1.598785,0.93131 3.297095,1.232552 3.297095,1.232552 -3.042024,-2.177283 -3.015284,-1.733876 -4.199344,-1.462798 z"
             sodipodi:nodetypes="cssscscccscscsscccsc" />
          <path
             style="fill:#008000;fill-opacity:1;stroke-width:0.499999;stroke-miterlimit:1"
             id="path4206-1-5-0"
             d="m 92.637205,45.163072 c -0.27473,0.0091 -0.974925,0.123444 -1.245884,0.202504 -0.187575,0.05474 -0.364606,0.140663 -0.546909,0.210995 -0.284675,0.166659 -0.661406,0.347247 -0.869632,0.622644 -0.127828,0.169064 -0.2131,0.367985 -0.293153,0.564235 -0.30039,0.736398 -0.380968,1.532818 -0.480495,2.313162 -0.0811,0.859766 -0.128557,1.725075 -0.111552,2.589035 0.01703,0.864309 0.09867,1.727369 0.172906,2.588035 0.132225,1.224587 0.2467,2.451023 0.314378,3.680941 l 1.822457,-0.0181 v 0 c -0.176049,-1.221613 -0.334084,-2.447028 -0.427844,-3.677997 -0.156177,-1.70798 -0.272648,-3.429005 -0.05693,-5.138346 0.134039,-0.895842 0.258092,-2.026885 0.88073,-2.742546 0.233321,-0.268179 0.536604,-0.396396 0.839791,-0.561605 0.5545,-0.192145 0.524228,-0.210611 1.119362,-0.295902 0.417793,0.381474 -0.315595,-0.07448 -0.472503,-0.08669 0.802621,-0.282348 0.25612,-0.372878 -0.644722,-0.250365 z"
             sodipodi:nodetypes="cscsscccccsccscccc" />
          <path
             style="fill:#008000;fill-opacity:1;stroke-width:0.499999;stroke-miterlimit:1"
             id="path4208-9-5-3"
             d="m 94.490237,43.851409 c -1.211626,-0.169182 -1.302639,-0.218104 -3.032377,-0.05722 -0.175872,0.01635 -0.337843,0.119367 -0.480348,0.223724 -0.517375,0.378872 -0.607298,0.995968 -0.736786,1.570791 -0.06217,0.569444 -0.145165,1.127615 -0.109884,1.704105 0.0266,0.4348 0.09766,0.865865 0.159001,1.297138 0.138962,0.976945 0.325632,2.033389 0.527689,2.998333 0.102837,0.491127 0.222424,0.978603 0.333636,1.467905 0.385128,1.72026 0.964413,3.382494 1.571749,5.033682 l 1.756048,-0.06919 v 0 c -0.227273,-0.490273 -0.459141,-0.978686 -0.665031,-1.478595 -0.471568,-1.145026 -0.861847,-2.321851 -1.175569,-3.519818 -0.115423,-0.487069 -0.244023,-0.971198 -0.346266,-1.461201 -0.40533,-1.9426 -0.672686,-3.960987 -0.277752,-5.927243 0.15623,-0.526518 0.26964,-1.088221 0.779519,-1.402636 0.134829,-0.08314 0.595595,-0.123232 0.444034,-0.169278 -0.374801,-0.113871 -0.78267,-0.07052 -1.173966,-0.05249 -0.245097,0.0113 0.488301,0.04856 0.732449,0.07284 0.716445,0.149691 1.074858,0.214596 1.795441,0.408573 1.018686,0.394106 1.743394,-0.801359 -0.101587,-0.63942 z"
             sodipodi:nodetypes="csscssscccsccscsssccc" />
        </g>
        <g
           id="g2467-5-7-5-0-6"
           transform="matrix(0.43103772,0,0,0.43103772,-2.855075,21.089854)">
          <g
             id="g2424-75-1-3-5-9"
             transform="matrix(0.70270033,0,0,0.85446452,29.006597,8.2104731)">
            <g
               id="g2514-0-8-3-2-1"
               transform="matrix(0.96842323,0.20503085,-0.30315656,0.96842323,23.641144,-17.764545)">
              <ellipse
                 style="opacity:1;fill:#ff7f2a;stroke-width:0.281797;stroke-miterlimit:1"
                 id="path2115-6-4-3-0-4"
                 cx="116.74391"
                 cy="1.7944354"
                 rx="0.88795406"
                 ry="2.9333467"
                 transform="matrix(0.83474157,0.5506419,-0.79444185,0.60734022,0,0)" />
              <ellipse
                 style="fill:#ff7f2a;stroke-width:0.281797;stroke-miterlimit:1"
                 id="path2115-2-4-9-8-7-1"
                 cx="120.5065"
                 cy="69.593681"
                 rx="0.88795406"
                 ry="2.9333467"
                 transform="matrix(0.99998998,0.00447708,-0.33295164,0.9429439,0,0)" />
              <ellipse
                 style="fill:#ff7f2a;stroke-width:0.281797;stroke-miterlimit:1"
                 id="path2115-2-6-7-7-5-7-4"
                 cx="77.510017"
                 cy="119.51488"
                 rx="0.88795406"
                 ry="2.9333467"
                 transform="matrix(0.79394618,-0.60798804,0.31320788,0.94968459,0,0)" />
            </g>
          </g>
        </g>
        <g
           id="g2467-9-8-3-8-9-6"
           transform="matrix(0.43103772,0,0,0.43103772,-1.997372,21.047522)">
          <g
             id="g2424-7-4-1-9-7-1"
             transform="matrix(-0.6346179,0.30174141,0.36690936,0.77167813,139.28429,-15.694832)">
            <ellipse
               style="opacity:1;fill:#ff7f2a;stroke-width:0.281797;stroke-miterlimit:1"
               id="path2115-3-0-0-6-5-0"
               cx="116.74391"
               cy="1.7944354"
               rx="0.88795406"
               ry="2.9333467"
               transform="matrix(0.83474157,0.5506419,-0.79444185,0.60734022,0,0)" />
            <ellipse
               style="fill:#ff7f2a;stroke-width:0.281797;stroke-miterlimit:1"
               id="path2115-2-7-0-2-0-3-2"
               cx="120.5065"
               cy="69.593681"
               rx="0.88795406"
               ry="2.9333467"
               transform="matrix(0.99998998,0.00447708,-0.33295164,0.9429439,0,0)" />
            <ellipse
               style="fill:#ff7f2a;stroke-width:0.281797;stroke-miterlimit:1"
               id="path2115-2-6-5-6-3-4-9-4"
               cx="77.510017"
               cy="119.51488"
               rx="0.88795406"
               ry="2.9333467"
               transform="matrix(0.79394618,-0.60798804,0.31320788,0.94968459,0,0)" />
          </g>
        </g>
        <ellipse
           style="fill:#008000;stroke-width:0.181111;stroke-miterlimit:1"
           id="path1987-2-7-2-9-0"
           cx="40.445042"
           cy="42.920544"
           rx="6.2447133"
           ry="5.728621" />
        <ellipse
           style="fill:#d40000;stroke-width:0.132797;stroke-miterlimit:1"
           id="path1987-4-4-1-3-4-4"
           cx="58.516846"
           cy="15.166834"
           rx="4.2835636"
           ry="4.4900007"
           transform="rotate(32.613235)" />
        <path
           style="fill:#008000;fill-opacity:1;stroke-width:0.215518;stroke-miterlimit:1"
           id="path2754-7-8-3-9-3"
           d="m 37.001716,39.340266 c 0.0073,0.03203 0.01259,0.06461 0.02198,0.09609 0.03957,0.132305 0.09332,0.255024 0.148983,0.381855 0.124907,0.284573 0.266089,0.56049 0.407241,0.8372 0.106048,0.180996 0.186682,0.382271 0.32208,0.545302 0.02586,0.03114 0.05125,0.06568 0.08692,0.08481 0.506728,0.271727 1.005533,0.563062 1.535809,0.785357 0.04676,0.0196 0.08164,-0.06013 0.122462,-0.0902 0.191786,-0.216254 0.286097,-0.494407 0.423624,-0.74399 0.123087,-0.223378 0.163337,-0.267857 0.30939,-0.473488 0.170876,-0.22429 0.359731,-0.43895 0.593401,-0.599954 0.0852,-0.05871 0.12119,-0.07314 0.209075,-0.116715 0.009,-0.0034 0.113763,-0.05082 0.136251,-0.03157 0.02733,0.02339 0.07968,0.113025 0.04754,0.09688 -0.433508,-0.217785 -0.834407,-0.497274 -1.269936,-0.710981 -0.06602,-0.0324 0.103427,0.104856 0.150251,0.16157 0.05023,0.06084 0.09363,0.127022 0.140445,0.190534 0.114328,0.158872 0.195794,0.336783 0.289429,0.507471 0.01845,0.03361 0.02599,0.07951 0.05925,0.09857 0.501271,0.287231 0.993801,0.599758 1.530896,0.812599 0.06751,0.02675 0.111479,-0.09311 0.167216,-0.139668 0.412603,-0.426926 0.889085,-0.78091 1.394985,-1.088449 0.142432,-0.07672 0.288347,-0.155806 0.44624,-0.196868 0.05359,-0.01394 0.119199,-0.02642 0.173752,-0.0037 0.0247,0.0103 0.04343,0.03131 0.06514,0.04696 -0.450292,-0.252113 -0.898774,-0.507491 -1.35088,-0.75634 -0.02927,-0.01611 0.0562,0.03641 0.08183,0.05783 0.06476,0.05411 0.11535,0.121451 0.163225,0.190049 0,0 1.532745,0.669194 1.532745,0.669194 v 0 c -0.44368,-0.670463 -0.679807,-0.628639 -1.746289,-1.176833 -0.03362,-2.28e-4 -0.06747,-0.0048 -0.100829,-6.89e-4 -0.06437,0.008 -0.126475,0.03765 -0.182846,0.06724 -0.141596,0.07432 -0.27298,0.166835 -0.399662,0.263886 -0.305572,0.247157 -0.612958,0.491109 -0.927986,0.726182 -0.08511,0.06351 -0.167997,0.130205 -0.256131,0.189439 -0.07447,0.05005 -0.154061,0.09201 -0.231092,0.138009 -0.655143,0.150923 -0.226679,0.01339 1.153978,0.836422 0.03716,0.02215 -0.0746,-0.04635 -0.102906,-0.07905 -0.03905,-0.0451 -0.06488,-0.100121 -0.09617,-0.1509 -0.04411,-0.07158 -0.18948,-0.317821 -0.229446,-0.385303 -0.487305,-0.781805 -0.333718,-0.496292 -1.739211,-1.301511 -0.107501,-0.06159 -0.210825,0.01944 -0.289989,0.07576 -0.107617,0.08763 -0.213308,0.176744 -0.30702,0.279698 -0.156876,0.172343 -0.288153,0.366227 -0.426417,0.553098 -0.157854,0.23498 -0.315373,0.470171 -0.473339,0.70507 -0.05739,0.08534 -0.147506,0.231142 -0.222058,0.310627 -0.02784,0.0297 -0.06272,0.05193 -0.09409,0.0779 -0.58097,0.130648 -0.07277,-0.0027 1.244216,0.79946 0.04009,0.02441 -0.09091,-0.02819 -0.129807,-0.05443 -0.193911,-0.130819 -0.292002,-0.363627 -0.421874,-0.547229 -0.19607,-0.363723 -0.408477,-0.74174 -0.440068,-1.162623 0,0 -1.520313,-0.774638 -1.520313,-0.774638 z" />
        <ellipse
           style="fill:#008000;stroke-width:0.282693;stroke-miterlimit:1"
           id="path2756-4-9-7-1-1"
           cx="40.047199"
           cy="34.993771"
           rx="3.5900798"
           ry="3.6858144" />
        <path
           style="fill:#008000;fill-opacity:1;stroke-width:0.215518;stroke-miterlimit:1"
           d="m 37.006423,34.811713 c -0.165967,0.06184 -0.452091,-0.221705 -0.581571,-0.128495 -0.04414,0.03179 -0.47345,-2.84e-4 -0.419747,-0.009 0.210122,-0.03401 0.787881,-0.633775 1.001318,-0.836192 0.273764,-0.259621 0.04021,0.02501 0.225794,-0.303486 0.02677,-0.04736 0.07033,-0.129258 0.02621,-0.161084 -0.0474,-0.03419 -1.116762,0.128476 -1.281897,0.155206 -0.01698,0.0027 0.03513,-0.0014 0.05094,-0.0082 0.115087,-0.0494 0.231399,-0.09747 0.340132,-0.159615 0.366951,-0.209731 0.458228,-0.317413 0.800114,-0.547755 0.07683,-0.05176 0.154376,-0.103766 0.238239,-0.143123 0.03116,-0.01462 0.07397,0.0036 0.101893,-0.01649 0.170932,-0.123095 -0.457292,0.01151 -0.627845,-0.0029 -0.144282,-0.01222 -0.299511,-0.171061 -0.406103,-0.247953 -0.01974,-0.01423 -0.08133,-0.05279 -0.05919,-0.0427 0.07827,0.03566 0.142988,0.110772 0.228523,0.119854 0.201243,0.02137 0.842011,-0.136288 1.069871,-0.17317 0.234691,-0.03799 -0.261675,-0.48853 -0.294494,-0.527423 -0.01108,-0.01315 -0.02465,-0.05608 -0.0082,-0.05095 0.04644,0.01453 0.07194,0.07087 0.118385,0.0854 0.03284,0.01027 0.194605,-0.0829 0.228888,-0.07999 0.414692,0.03513 -0.06211,0.477576 0.528527,-0.408572 0.0353,-0.05293 0.203312,-0.503436 0.333352,-0.524484 0.06955,-0.01124 0.148091,0.466807 0.243549,0.535669 0.05521,0.03983 0.348925,-0.474725 0.494434,-0.498278 0.05095,-0.0082 8.63e-4,0.107115 0.02474,0.152839 0.04022,0.0768 0.154971,0.138896 0.19407,0.229992 0.01358,0.03162 -0.0034,0.07397 0.01651,0.101893 0.03923,0.05447 0.610824,-0.464834 0.655522,-0.472069 0.01694,-0.0027 0.0054,0.03398 0.0081,0.05096 0.0094,0.05865 0.194376,0.567792 0.243549,0.535669 0.135863,-0.08876 0.241019,-0.217577 0.366339,-0.3207 0.196915,-0.162042 0.310377,-0.343394 0.356619,-0.05772 0.01069,0.06731 0.06323,0.617132 0.149898,0.603107 0.01703,-0.0027 -0.01625,-0.03571 -0.0081,-0.05096 0.03392,-0.06464 0.08022,-0.122494 0.128096,-0.177577 0.03853,-0.04434 0.183079,-0.232931 0.280942,-0.202316 0.131428,0.04111 0.115277,0.389216 0.133406,0.501216 0.01121,0.06791 0.02198,0.135855 0.03297,0.203785 0.0026,0.01699 -0.0049,0.06204 0.0081,0.05096 0.08419,-0.07104 0.14276,-0.168238 0.221747,-0.245015 0.07667,-0.06469 0.153329,-0.129379 0.229993,-0.194069 0.03397,-0.0055 0.07397,0.0036 0.101893,-0.01649 0.01397,-0.01005 0.0087,-0.05369 -0.0081,-0.05096 -0.01694,0.0027 0.0054,0.03398 0.0081,0.05096 0.0081,0.05096 0.01651,0.101893 0.02474,0.152839 0.02474,0.152838 0.04947,0.305678 0.0742,0.458517 0.01375,0.08491 -0.009,0.184929 0.04121,0.254732 0.085,0.118022 0.390382,-0.393353 0.468232,-0.337193 0.104147,0.07513 -0.100798,0.399538 -0.12957,0.4915 -0.03065,0.0979 0.03289,0.02372 0.05919,0.0427 0.06976,0.05032 0.0073,0.17569 0.04121,0.254732 0.0306,0.07125 0.111707,0.04415 0.12663,0.136347"
           id="path3670-1-3-0-5-7"
           sodipodi:nodetypes="cssscsccsssccssssccscccsccscccsscccsscccccscscccscccc" />
        <ellipse
           style="fill:#ffffff;stroke-width:0.215518;stroke-miterlimit:1"
           id="path2813-8-7-0-9-9"
           cx="39.312832"
           cy="34.793056"
           rx="1.3320024"
           ry="1.5509616" />
        <ellipse
           style="fill:#ffffff;stroke-width:0.215518;stroke-miterlimit:1"
           id="path2813-1-58-4-1-8-4"
           cx="41.411198"
           cy="34.555851"
           rx="1.3320024"
           ry="1.5509616" />
        <path
           id="rect2810-9-8-0-3-7"
           style="fill:#d4aa00;stroke-width:0.215518;stroke-miterlimit:1"
           d="m 40.389388,35.212728 1.897647,1.751674 1.605698,1.532715 -4.342692,-1.131289 z"
           sodipodi:nodetypes="ccccc" />
        <ellipse
           style="fill:#000000;stroke-width:0.256162;stroke-miterlimit:1"
           id="path2846-9-0-3-0-0"
           cx="39.604778"
           cy="35.103249"
           rx="0.93057698"
           ry="1.0947964" />
        <ellipse
           style="fill:#000000;stroke-width:0.256162;stroke-miterlimit:1"
           id="path2846-0-9-4-0-9-1"
           cx="41.265224"
           cy="34.884289"
           rx="0.93057698"
           ry="1.0947964" />
        <ellipse
           style="fill:#ffffff;stroke-width:0.039459;stroke-miterlimit:1"
           id="path2813-1-5-3-0-0-0-1"
           cx="41.57542"
           cy="34.482864"
           rx="0.23720592"
           ry="0.29194567" />
        <ellipse
           style="fill:#ffffff;stroke-width:0.039459;stroke-miterlimit:1"
           id="path2813-1-5-5-3-5-3-7-5"
           cx="39.769001"
           cy="34.628838"
           rx="0.23720592"
           ry="0.29194567" />
      </g>
    </g>
  </g>
</svg>
