<?xml version="1.0" encoding="UTF-8" standalone="no"?>
<!-- Created with Inkscape (http://www.inkscape.org/) -->

<svg
   width="61.176498mm"
   height="50.986656mm"
   viewBox="0 0 61.176498 50.986656"
   version="1.1"
   id="svg76241"
   inkscape:version="1.2.2 (b0a8486, 2022-12-01)"
   sodipodi:docname="banner3.svg"
   xmlns:inkscape="http://www.inkscape.org/namespaces/inkscape"
   xmlns:sodipodi="http://sodipodi.sourceforge.net/DTD/sodipodi-0.dtd"
   xmlns="http://www.w3.org/2000/svg"
   xmlns:svg="http://www.w3.org/2000/svg">
  <sodipodi:namedview
     id="namedview76243"
     pagecolor="#ffffff"
     bordercolor="#000000"
     borderopacity="0.25"
     inkscape:showpageshadow="2"
     inkscape:pageopacity="0.0"
     inkscape:pagecheckerboard="0"
     inkscape:deskcolor="#d1d1d1"
     inkscape:document-units="mm"
     showgrid="false"
     inkscape:zoom="0.78127806"
     inkscape:cx="-119.03572"
     inkscape:cy="307.82894"
     inkscape:window-width="1390"
     inkscape:window-height="1027"
     inkscape:window-x="67"
     inkscape:window-y="25"
     inkscape:window-maximized="0"
     inkscape:current-layer="layer1" />
  <defs
     id="defs76238" />
  <g
     inkscape:label="Layer 1"
     inkscape:groupmode="layer"
     id="layer1"
     transform="translate(-86.247556,-67.298011)">
    <g
       id="g65342"
       transform="translate(-82.123711,-196.41961)"
       inkscape:export-filename="banner3.png"
       inkscape:export-xdpi="96"
       inkscape:export-ydpi="96">
      <rect
         style="fill:#c0daff;fill-opacity:1;stroke:none;stroke-width:0.433589;stroke-miterlimit:1;stroke-opacity:1"
         id="rect39364-0-0"
         width="57.232105"
         height="39.511707"
         x="172.31566"
         y="263.71762"
         ry="4.8509951" />
      <g
         id="g62260"
         transform="matrix(0.53083159,0.35459875,-0.35459875,0.53083159,218.72181,92.290267)">
        <g
           id="g62231">
          <g
             transform="matrix(0.00735561,0,0,-0.00735561,77.289367,407.37794)"
             id="g984"
             style="fill:#ffffff">
            <path
               id="path986"
               style="fill:#ffffff;fill-opacity:1;fill-rule:nonzero;stroke:none"
               d="m 7283.25,16300 c 597.12,0 1127.04,-324.1 1334.53,-847.4 -207.49,-523.3 -737.41,-835.3 -1334.53,-835.3 -597.12,0 -1127.05,312 -1334.54,835.3 207.49,523.3 737.42,847.4 1334.54,847.4" />
          </g>
          <g
             transform="matrix(0.00725086,0,0,-0.00725086,77.289367,407.37794)"
             id="g988">
            <path
               id="path990"
               style="fill:#4e567f;fill-opacity:1;fill-rule:nonzero;stroke:none"
               d="m 7388.45,16300 c -341.34,0 -618.04,-276.7 -618.04,-618.1 0,-341.3 276.7,-618 618.04,-618 341.33,0 618.04,276.7 618.04,618 0,341.4 -276.71,618.1 -618.04,618.1" />
          </g>
          <g
             transform="matrix(0.00714617,0,0,-0.00714617,77.289367,407.37794)"
             id="g992">
            <path
               id="path994"
               style="fill:#619dda;fill-opacity:1;fill-rule:nonzero;stroke:none"
               d="m 7496.74,16300 c 214.4,0 388.21,-173.8 388.21,-388.2 0,-214.4 -173.81,-388.2 -388.21,-388.2 -214.42,0 -388.21,173.8 -388.21,388.2 0,214.4 173.79,388.2 388.21,388.2" />
          </g>
          <g
             transform="matrix(0.00706759,0,0,-0.00706759,77.289367,407.37794)"
             id="g996">
            <path
               id="path998"
               style="fill:#dae1f4;fill-opacity:1;fill-rule:nonzero;stroke:none"
               d="m 7731.02,16149 h -90.57 v 90.6 c 0,33.4 -27.04,60.4 -60.39,60.4 -33.36,0 -60.39,-27 -60.39,-60.4 v -90.6 h -90.58 c -33.35,0 -60.39,-27 -60.39,-60.4 0,-33.3 27.04,-60.3 60.39,-60.3 h 90.58 v -90.6 c 0,-33.4 27.03,-60.4 60.39,-60.4 33.35,0 60.39,27 60.39,60.4 v 90.6 h 90.57 c 33.36,0 60.39,27 60.39,60.3 0,33.4 -27.03,60.4 -60.39,60.4" />
          </g>
        </g>
        <g
           transform="matrix(0.00780502,0,0,-0.00780502,77.289367,407.37794)"
           id="g1000">
          <path
             id="path1002"
             style="fill:#619dda;fill-opacity:1;fill-rule:nonzero;stroke:none"
             d="m 7289.19,15950.8 c -13.99,0 -27.99,5.3 -38.67,16 -213.2,213.2 -560.1,213.2 -773.3,0 -21.35,-21.3 -55.98,-21.3 -77.34,0 -21.34,21.4 -21.34,56 0,77.4 255.85,255.8 672.14,255.8 927.98,0 21.36,-21.4 21.36,-56 0,-77.4 -10.69,-10.7 -24.67,-16 -38.67,-16" />
        </g>
        <g
           transform="matrix(0.00764658,0,0,-0.00764658,77.289367,407.37794)"
           id="g1004">
          <path
             id="path1006"
             style="fill:#388ed4;fill-opacity:1;fill-rule:nonzero;stroke:none"
             d="m 7247.31,16088.5 c -14.29,0 -28.58,5.4 -39.47,16.3 -53.86,53.9 -125.5,83.6 -201.7,83.6 -76.21,0 -147.84,-29.7 -201.7,-83.6 -21.79,-21.8 -57.14,-21.8 -78.94,0 -21.8,21.8 -21.81,57.1 -0.02,78.9 74.96,75 174.63,116.3 280.66,116.3 106.03,0 205.7,-41.3 280.65,-116.3 21.79,-21.8 21.79,-57.1 -0.02,-78.9 -10.89,-10.9 -25.18,-16.3 -39.46,-16.3" />
        </g>
        <g
           transform="matrix(0.00753888,0,0,-0.00753888,77.289367,407.37794)"
           id="g1008">
          <path
             id="path1010"
             style="fill:#619dda;fill-opacity:1;fill-rule:nonzero;stroke:none"
             d="m 7186.23,16153.6 c -14.49,0 -28.98,5.5 -40.03,16.6 -10.69,10.7 -24.91,16.6 -40.02,16.6 -15.11,0 -29.32,-5.9 -40.02,-16.6 -22.11,-22.1 -57.95,-22.1 -80.05,0 -22.12,22.1 -22.12,57.9 0,80.1 32.06,32 74.71,49.7 120.07,49.7 45.36,0 88.01,-17.7 120.08,-49.7 22.12,-22.2 22.12,-58 0,-80.1 -11.06,-11.1 -25.54,-16.6 -40.03,-16.6" />
        </g>
      </g>
      <g
         id="g4734-4-3-9"
         transform="translate(135.31747,253.77003)">
        <g
           id="g4357-3-6-8-8"
           transform="rotate(-2.4117012,134.05825,1305.631)">
          <path
             style="fill:#008000;fill-opacity:1;stroke-width:0.499999;stroke-miterlimit:1"
             id="path4204-0-7-7-4"
             d="m 92.733723,42.029241 c -0.169578,0.05966 -0.352002,0.09094 -0.50874,0.178969 -0.439676,0.246923 -1.129905,0.865312 -1.460162,1.191369 -0.574095,0.566795 -1.158018,1.252111 -1.644267,1.892665 -0.263291,0.346848 -0.50384,0.710385 -0.75576,1.065578 -0.847278,1.345747 -1.53652,2.792163 -2.043839,4.299847 -0.187928,0.558498 -0.307653,1.047033 -0.456141,1.611214 -0.04563,0.191471 -0.09127,0.382942 -0.136897,0.574411 l 1.801349,0.03374 v 0 c 0.02659,-0.189698 0.05322,-0.379396 0.07982,-0.569094 0.131738,-0.68657 0.155928,-0.891866 0.361274,-1.595115 0.439702,-1.505842 1.09547,-2.941201 1.947679,-4.258609 0.252325,-0.351383 0.490753,-0.713171 0.756971,-1.054153 0.50662,-0.648899 1.100926,-1.309756 1.717612,-1.858251 0.506426,-0.450427 1.011348,-0.831448 1.63268,-1.10391 1.095137,-0.223538 -0.430772,-0.183676 -0.82786,-0.198705 -0.146229,-0.0055 0.293701,-5.17e-4 0.43853,0.02029 1.598785,0.93131 3.297095,1.232552 3.297095,1.232552 -3.042024,-2.177283 -3.015284,-1.733876 -4.199344,-1.462798 z"
             sodipodi:nodetypes="cssscscccscscsscccsc" />
          <path
             style="fill:#008000;fill-opacity:1;stroke-width:0.499999;stroke-miterlimit:1"
             id="path4206-1-5-0-0"
             d="m 92.637205,45.163072 c -0.27473,0.0091 -0.974925,0.123444 -1.245884,0.202504 -0.187575,0.05474 -0.364606,0.140663 -0.546909,0.210995 -0.284675,0.166659 -0.661406,0.347247 -0.869632,0.622644 -0.127828,0.169064 -0.2131,0.367985 -0.293153,0.564235 -0.30039,0.736398 -0.380968,1.532818 -0.480495,2.313162 -0.0811,0.859766 -0.128557,1.725075 -0.111552,2.589035 0.01703,0.864309 0.09867,1.727369 0.172906,2.588035 0.132225,1.224587 0.2467,2.451023 0.314378,3.680941 l 1.822457,-0.0181 v 0 c -0.176049,-1.221613 -0.334084,-2.447028 -0.427844,-3.677997 -0.156177,-1.70798 -0.272648,-3.429005 -0.05693,-5.138346 0.134039,-0.895842 0.258092,-2.026885 0.88073,-2.742546 0.233321,-0.268179 0.536604,-0.396396 0.839791,-0.561605 0.5545,-0.192145 0.524228,-0.210611 1.119362,-0.295902 0.417793,0.381474 -0.315595,-0.07448 -0.472503,-0.08669 0.802621,-0.282348 0.25612,-0.372878 -0.644722,-0.250365 z"
             sodipodi:nodetypes="cscsscccccsccscccc" />
          <path
             style="fill:#008000;fill-opacity:1;stroke-width:0.499999;stroke-miterlimit:1"
             id="path4208-9-5-3-6"
             d="m 94.490237,43.851409 c -1.211626,-0.169182 -1.302639,-0.218104 -3.032377,-0.05722 -0.175872,0.01635 -0.337843,0.119367 -0.480348,0.223724 -0.517375,0.378872 -0.607298,0.995968 -0.736786,1.570791 -0.06217,0.569444 -0.145165,1.127615 -0.109884,1.704105 0.0266,0.4348 0.09766,0.865865 0.159001,1.297138 0.138962,0.976945 0.325632,2.033389 0.527689,2.998333 0.102837,0.491127 0.222424,0.978603 0.333636,1.467905 0.385128,1.72026 0.964413,3.382494 1.571749,5.033682 l 1.756048,-0.06919 v 0 c -0.227273,-0.490273 -0.459141,-0.978686 -0.665031,-1.478595 -0.471568,-1.145026 -0.861847,-2.321851 -1.175569,-3.519818 -0.115423,-0.487069 -0.244023,-0.971198 -0.346266,-1.461201 -0.40533,-1.9426 -0.672686,-3.960987 -0.277752,-5.927243 0.15623,-0.526518 0.26964,-1.088221 0.779519,-1.402636 0.134829,-0.08314 0.595595,-0.123232 0.444034,-0.169278 -0.374801,-0.113871 -0.78267,-0.07052 -1.173966,-0.05249 -0.245097,0.0113 0.488301,0.04856 0.732449,0.07284 0.716445,0.149691 1.074858,0.214596 1.795441,0.408573 1.018686,0.394106 1.743394,-0.801359 -0.101587,-0.63942 z"
             sodipodi:nodetypes="csscssscccsccscsssccc" />
        </g>
        <g
           id="g2467-5-7-5-0-6-3"
           transform="matrix(0.43103772,0,0,0.43103772,-2.855075,21.089854)">
          <g
             id="g2424-75-1-3-5-9-4"
             transform="matrix(0.70270033,0,0,0.85446452,29.006597,8.2104731)">
            <g
               id="g2514-0-8-3-2-1-6"
               transform="matrix(0.96842323,0.20503085,-0.30315656,0.96842323,23.641144,-17.764545)">
              <ellipse
                 style="opacity:1;fill:#ff7f2a;stroke-width:0.281797;stroke-miterlimit:1"
                 id="path2115-6-4-3-0-4-9"
                 cx="116.74391"
                 cy="1.7944354"
                 rx="0.88795406"
                 ry="2.9333467"
                 transform="matrix(0.83474157,0.5506419,-0.79444185,0.60734022,0,0)" />
              <ellipse
                 style="fill:#ff7f2a;stroke-width:0.281797;stroke-miterlimit:1"
                 id="path2115-2-4-9-8-7-1-7"
                 cx="120.5065"
                 cy="69.593681"
                 rx="0.88795406"
                 ry="2.9333467"
                 transform="matrix(0.99998998,0.00447708,-0.33295164,0.9429439,0,0)" />
              <ellipse
                 style="fill:#ff7f2a;stroke-width:0.281797;stroke-miterlimit:1"
                 id="path2115-2-6-7-7-5-7-4-4"
                 cx="77.510017"
                 cy="119.51488"
                 rx="0.88795406"
                 ry="2.9333467"
                 transform="matrix(0.79394618,-0.60798804,0.31320788,0.94968459,0,0)" />
            </g>
          </g>
        </g>
        <g
           id="g2467-9-8-3-8-9-6-9"
           transform="matrix(0.43103772,0,0,0.43103772,-1.997372,21.047522)">
          <g
             id="g2424-7-4-1-9-7-1-4"
             transform="matrix(-0.6346179,0.30174141,0.36690936,0.77167813,139.28429,-15.694832)">
            <ellipse
               style="opacity:1;fill:#ff7f2a;stroke-width:0.281797;stroke-miterlimit:1"
               id="path2115-3-0-0-6-5-0-1"
               cx="116.74391"
               cy="1.7944354"
               rx="0.88795406"
               ry="2.9333467"
               transform="matrix(0.83474157,0.5506419,-0.79444185,0.60734022,0,0)" />
            <ellipse
               style="fill:#ff7f2a;stroke-width:0.281797;stroke-miterlimit:1"
               id="path2115-2-7-0-2-0-3-2-9"
               cx="120.5065"
               cy="69.593681"
               rx="0.88795406"
               ry="2.9333467"
               transform="matrix(0.99998998,0.00447708,-0.33295164,0.9429439,0,0)" />
            <ellipse
               style="fill:#ff7f2a;stroke-width:0.281797;stroke-miterlimit:1"
               id="path2115-2-6-5-6-3-4-9-4-6"
               cx="77.510017"
               cy="119.51488"
               rx="0.88795406"
               ry="2.9333467"
               transform="matrix(0.79394618,-0.60798804,0.31320788,0.94968459,0,0)" />
          </g>
        </g>
        <ellipse
           style="fill:#008000;stroke-width:0.181111;stroke-miterlimit:1"
           id="path1987-2-7-2-9-0-7"
           cx="40.445042"
           cy="42.920544"
           rx="6.2447133"
           ry="5.728621" />
        <ellipse
           style="fill:#d40000;stroke-width:0.132797;stroke-miterlimit:1"
           id="path1987-4-4-1-3-4-4-0"
           cx="58.516846"
           cy="15.166834"
           rx="4.2835636"
           ry="4.4900007"
           transform="rotate(32.613235)" />
        <path
           style="fill:#008000;fill-opacity:1;stroke-width:0.215518;stroke-miterlimit:1"
           id="path2754-7-8-3-9-3-9"
           d="m 37.001716,39.340266 c 0.0073,0.03203 0.01259,0.06461 0.02198,0.09609 0.03957,0.132305 0.09332,0.255024 0.148983,0.381855 0.124907,0.284573 0.266089,0.56049 0.407241,0.8372 0.106048,0.180996 0.186682,0.382271 0.32208,0.545302 0.02586,0.03114 0.05125,0.06568 0.08692,0.08481 0.506728,0.271727 1.005533,0.563062 1.535809,0.785357 0.04676,0.0196 0.08164,-0.06013 0.122462,-0.0902 0.191786,-0.216254 0.286097,-0.494407 0.423624,-0.74399 0.123087,-0.223378 0.163337,-0.267857 0.30939,-0.473488 0.170876,-0.22429 0.359731,-0.43895 0.593401,-0.599954 0.0852,-0.05871 0.12119,-0.07314 0.209075,-0.116715 0.009,-0.0034 0.113763,-0.05082 0.136251,-0.03157 0.02733,0.02339 0.07968,0.113025 0.04754,0.09688 -0.433508,-0.217785 -0.834407,-0.497274 -1.269936,-0.710981 -0.06602,-0.0324 0.103427,0.104856 0.150251,0.16157 0.05023,0.06084 0.09363,0.127022 0.140445,0.190534 0.114328,0.158872 0.195794,0.336783 0.289429,0.507471 0.01845,0.03361 0.02599,0.07951 0.05925,0.09857 0.501271,0.287231 0.993801,0.599758 1.530896,0.812599 0.06751,0.02675 0.111479,-0.09311 0.167216,-0.139668 0.412603,-0.426926 0.889085,-0.78091 1.394985,-1.088449 0.142432,-0.07672 0.288347,-0.155806 0.44624,-0.196868 0.05359,-0.01394 0.119199,-0.02642 0.173752,-0.0037 0.0247,0.0103 0.04343,0.03131 0.06514,0.04696 -0.450292,-0.252113 -0.898774,-0.507491 -1.35088,-0.75634 -0.02927,-0.01611 0.0562,0.03641 0.08183,0.05783 0.06476,0.05411 0.11535,0.121451 0.163225,0.190049 0,0 1.532745,0.669194 1.532745,0.669194 v 0 c -0.44368,-0.670463 -0.679807,-0.628639 -1.746289,-1.176833 -0.03362,-2.28e-4 -0.06747,-0.0048 -0.100829,-6.89e-4 -0.06437,0.008 -0.126475,0.03765 -0.182846,0.06724 -0.141596,0.07432 -0.27298,0.166835 -0.399662,0.263886 -0.305572,0.247157 -0.612958,0.491109 -0.927986,0.726182 -0.08511,0.06351 -0.167997,0.130205 -0.256131,0.189439 -0.07447,0.05005 -0.154061,0.09201 -0.231092,0.138009 -0.655143,0.150923 -0.226679,0.01339 1.153978,0.836422 0.03716,0.02215 -0.0746,-0.04635 -0.102906,-0.07905 -0.03905,-0.0451 -0.06488,-0.100121 -0.09617,-0.1509 -0.04411,-0.07158 -0.18948,-0.317821 -0.229446,-0.385303 -0.487305,-0.781805 -0.333718,-0.496292 -1.739211,-1.301511 -0.107501,-0.06159 -0.210825,0.01944 -0.289989,0.07576 -0.107617,0.08763 -0.213308,0.176744 -0.30702,0.279698 -0.156876,0.172343 -0.288153,0.366227 -0.426417,0.553098 -0.157854,0.23498 -0.315373,0.470171 -0.473339,0.70507 -0.05739,0.08534 -0.147506,0.231142 -0.222058,0.310627 -0.02784,0.0297 -0.06272,0.05193 -0.09409,0.0779 -0.58097,0.130648 -0.07277,-0.0027 1.244216,0.79946 0.04009,0.02441 -0.09091,-0.02819 -0.129807,-0.05443 -0.193911,-0.130819 -0.292002,-0.363627 -0.421874,-0.547229 -0.19607,-0.363723 -0.408477,-0.74174 -0.440068,-1.162623 0,0 -1.520313,-0.774638 -1.520313,-0.774638 z" />
        <ellipse
           style="fill:#008000;stroke-width:0.282693;stroke-miterlimit:1"
           id="path2756-4-9-7-1-1-7"
           cx="40.047199"
           cy="34.993771"
           rx="3.5900798"
           ry="3.6858144" />
        <path
           style="fill:#008000;fill-opacity:1;stroke-width:0.215518;stroke-miterlimit:1"
           d="m 37.006423,34.811713 c -0.165967,0.06184 -0.452091,-0.221705 -0.581571,-0.128495 -0.04414,0.03179 -0.47345,-2.84e-4 -0.419747,-0.009 0.210122,-0.03401 0.787881,-0.633775 1.001318,-0.836192 0.273764,-0.259621 0.04021,0.02501 0.225794,-0.303486 0.02677,-0.04736 0.07033,-0.129258 0.02621,-0.161084 -0.0474,-0.03419 -1.116762,0.128476 -1.281897,0.155206 -0.01698,0.0027 0.03513,-0.0014 0.05094,-0.0082 0.115087,-0.0494 0.231399,-0.09747 0.340132,-0.159615 0.366951,-0.209731 0.458228,-0.317413 0.800114,-0.547755 0.07683,-0.05176 0.154376,-0.103766 0.238239,-0.143123 0.03116,-0.01462 0.07397,0.0036 0.101893,-0.01649 0.170932,-0.123095 -0.457292,0.01151 -0.627845,-0.0029 -0.144282,-0.01222 -0.299511,-0.171061 -0.406103,-0.247953 -0.01974,-0.01423 -0.08133,-0.05279 -0.05919,-0.0427 0.07827,0.03566 0.142988,0.110772 0.228523,0.119854 0.201243,0.02137 0.842011,-0.136288 1.069871,-0.17317 0.234691,-0.03799 -0.261675,-0.48853 -0.294494,-0.527423 -0.01108,-0.01315 -0.02465,-0.05608 -0.0082,-0.05095 0.04644,0.01453 0.07194,0.07087 0.118385,0.0854 0.03284,0.01027 0.194605,-0.0829 0.228888,-0.07999 0.414692,0.03513 -0.06211,0.477576 0.528527,-0.408572 0.0353,-0.05293 0.203312,-0.503436 0.333352,-0.524484 0.06955,-0.01124 0.148091,0.466807 0.243549,0.535669 0.05521,0.03983 0.348925,-0.474725 0.494434,-0.498278 0.05095,-0.0082 8.63e-4,0.107115 0.02474,0.152839 0.04022,0.0768 0.154971,0.138896 0.19407,0.229992 0.01358,0.03162 -0.0034,0.07397 0.01651,0.101893 0.03923,0.05447 0.610824,-0.464834 0.655522,-0.472069 0.01694,-0.0027 0.0054,0.03398 0.0081,0.05096 0.0094,0.05865 0.194376,0.567792 0.243549,0.535669 0.135863,-0.08876 0.241019,-0.217577 0.366339,-0.3207 0.196915,-0.162042 0.310377,-0.343394 0.356619,-0.05772 0.01069,0.06731 0.06323,0.617132 0.149898,0.603107 0.01703,-0.0027 -0.01625,-0.03571 -0.0081,-0.05096 0.03392,-0.06464 0.08022,-0.122494 0.128096,-0.177577 0.03853,-0.04434 0.183079,-0.232931 0.280942,-0.202316 0.131428,0.04111 0.115277,0.389216 0.133406,0.501216 0.01121,0.06791 0.02198,0.135855 0.03297,0.203785 0.0026,0.01699 -0.0049,0.06204 0.0081,0.05096 0.08419,-0.07104 0.14276,-0.168238 0.221747,-0.245015 0.07667,-0.06469 0.153329,-0.129379 0.229993,-0.194069 0.03397,-0.0055 0.07397,0.0036 0.101893,-0.01649 0.01397,-0.01005 0.0087,-0.05369 -0.0081,-0.05096 -0.01694,0.0027 0.0054,0.03398 0.0081,0.05096 0.0081,0.05096 0.01651,0.101893 0.02474,0.152839 0.02474,0.152838 0.04947,0.305678 0.0742,0.458517 0.01375,0.08491 -0.009,0.184929 0.04121,0.254732 0.085,0.118022 0.390382,-0.393353 0.468232,-0.337193 0.104147,0.07513 -0.100798,0.399538 -0.12957,0.4915 -0.03065,0.0979 0.03289,0.02372 0.05919,0.0427 0.06976,0.05032 0.0073,0.17569 0.04121,0.254732 0.0306,0.07125 0.111707,0.04415 0.12663,0.136347"
           id="path3670-1-3-0-5-7-3"
           sodipodi:nodetypes="cssscsccsssccssssccscccsccscccsscccsscccccscscccscccc" />
        <ellipse
           style="fill:#ffffff;stroke-width:0.215518;stroke-miterlimit:1"
           id="path2813-8-7-0-9-9-1"
           cx="39.312832"
           cy="34.793056"
           rx="1.3320024"
           ry="1.5509616" />
        <ellipse
           style="fill:#ffffff;stroke-width:0.215518;stroke-miterlimit:1"
           id="path2813-1-58-4-1-8-4-5"
           cx="41.411198"
           cy="34.555851"
           rx="1.3320024"
           ry="1.5509616" />
        <path
           id="rect2810-9-8-0-3-7-6"
           style="fill:#d4aa00;stroke-width:0.215518;stroke-miterlimit:1"
           d="m 40.389388,35.212728 1.897647,1.751674 1.605698,1.532715 -4.342692,-1.131289 z"
           sodipodi:nodetypes="ccccc" />
        <ellipse
           style="fill:#000000;stroke-width:0.256162;stroke-miterlimit:1"
           id="path2846-9-0-3-0-0-4"
           cx="39.604778"
           cy="35.103249"
           rx="0.93057698"
           ry="1.0947964" />
        <ellipse
           style="fill:#000000;stroke-width:0.256162;stroke-miterlimit:1"
           id="path2846-0-9-4-0-9-1-5"
           cx="41.265224"
           cy="34.884289"
           rx="0.93057698"
           ry="1.0947964" />
        <ellipse
           style="fill:#ffffff;stroke-width:0.039459;stroke-miterlimit:1"
           id="path2813-1-5-3-0-0-0-1-1"
           cx="41.57542"
           cy="34.482864"
           rx="0.23720592"
           ry="0.29194567" />
        <ellipse
           style="fill:#ffffff;stroke-width:0.039459;stroke-miterlimit:1"
           id="path2813-1-5-5-3-5-3-7-5-2"
           cx="39.769001"
           cy="34.628838"
           rx="0.23720592"
           ry="0.29194567" />
      </g>
      <g
         id="g62207"
         transform="matrix(0.19023259,0,0,0.19023259,139.25156,213.01415)">
        <g
           transform="matrix(0.0429327,0,0,-0.0429327,-320.92067,981.89508)"
           id="g880">
          <path
             id="path882"
             style="fill:#4e567f;fill-opacity:1;fill-rule:nonzero;stroke:none"
             d="m 16287.7,15916.4 v -1926.1 c 0,-116.7 -94.7,-211.3 -211.4,-211.3 H 13978 c -116.7,0 -211.4,94.6 -211.4,211.3 v 2098.3 c 0,116.8 94.7,211.4 211.4,211.4 h 884.8 l 456,-261.9 968.9,-121.7" />
        </g>
        <g
           transform="matrix(0.0429327,0,0,-0.0429327,-320.92067,981.89508)"
           id="g884">
          <path
             id="path886"
             style="fill:#619dda;fill-opacity:1;fill-rule:nonzero;stroke:none"
             d="m 16287.7,16088.6 v -172.2 h -1041.3 l -383.6,383.6 h 1213.5 c 116.7,0 211.4,-94.6 211.4,-211.4" />
        </g>
        <g
           transform="matrix(0.04235556,0,0,-0.04235556,-320.92067,981.89508)"
           id="g888">
          <path
             id="path890"
             style="fill:#a1d731;fill-opacity:1;fill-rule:nonzero;stroke:none"
             d="m 14732.1,16300 c 61.3,0 111.1,-49.8 111.1,-111.1 0,-61.4 -49.8,-111.1 -111.1,-111.1 -61.4,0 -111.2,49.7 -111.2,111.1 0,61.3 49.8,111.1 111.2,111.1" />
        </g>
        <g
           transform="matrix(0.04235556,0,0,-0.04235556,-320.92067,981.89508)"
           id="g892">
          <path
             id="path894"
             style="fill:#ee2347;fill-opacity:1;fill-rule:nonzero;stroke:none"
             d="m 14287.6,16300 c 61.4,0 111.1,-49.8 111.1,-111.1 0,-61.4 -49.7,-111.1 -111.1,-111.1 -61.4,0 -111.1,49.7 -111.1,111.1 0,61.3 49.7,111.1 111.1,111.1" />
        </g>
        <g
           transform="matrix(0.04217846,0,0,-0.04217846,-320.92067,981.89508)"
           id="g896">
          <path
             id="path898"
             style="fill:#dae1f4;fill-opacity:1;fill-rule:nonzero;stroke:none"
             d="m 16300,15029.5 v -669.4 h -2008.3 v 669.4 223.2 223.1 334.7 H 16300 v -334.7 -223.1 -223.2" />
        </g>
        <g
           transform="matrix(0.03903521,0,0,-0.03903521,-320.92067,981.89508)"
           id="g912">
          <path
             id="path914"
             style="fill:#bac6e9;fill-opacity:1;fill-rule:nonzero;stroke:none"
             d="m 15442.5,16179.4 h 301.4 c 33.3,0 60.3,27 60.3,60.3 0,33.3 -27,60.3 -60.3,60.3 h -301.4 v -120.6" />
        </g>
        <g
           transform="matrix(0.03961271,0,0,-0.03961271,-320.92067,981.89508)"
           id="g916">
          <path
             id="path918"
             style="fill:#bac6e9;fill-opacity:1;fill-rule:nonzero;stroke:none"
             d="m 15217.4,16181.2 h 297.1 c 32.7,0 59.4,26.6 59.4,59.4 0,32.8 -26.7,59.4 -59.4,59.4 h -297.1 v -118.8" />
        </g>
        <g
           transform="matrix(0.04019021,0,0,-0.04019021,-320.92067,981.89508)"
           id="g920">
          <path
             id="path922"
             style="fill:#bac6e9;fill-opacity:1;fill-rule:nonzero;stroke:none"
             d="m 14998.8,16182.9 h 292.8 c 32.3,0 58.5,26.2 58.5,58.6 0,32.3 -26.2,58.5 -58.5,58.5 h -292.8 v -117.1" />
        </g>
        <g
           transform="matrix(0.04217846,0,0,-0.04217846,-320.92067,981.89508)"
           id="g924">
          <path
             id="path926"
             style="fill:#bac6e9;fill-opacity:1;fill-rule:nonzero;stroke:none"
             d="m 16300,15085.3 h -278.9 c -30.8,0 -55.8,-25 -55.8,-55.8 0,-30.8 25,-55.8 55.8,-55.8 h 278.9 v 0 111.6 0" />
        </g>
        <g
           transform="matrix(0.04217846,0,0,-0.04217846,-320.92067,981.89508)"
           id="g928">
          <path
             id="path930"
             style="fill:#bac6e9;fill-opacity:1;fill-rule:nonzero;stroke:none"
             d="m 16300,15308.4 h -278.9 c -30.8,0 -55.8,-24.9 -55.8,-55.7 0,-30.9 25,-55.8 55.8,-55.8 h 278.9 v 0 111.5 0" />
        </g>
        <g
           transform="matrix(0.04217846,0,0,-0.04217846,-320.92067,981.89508)"
           id="g932">
          <path
             id="path934"
             style="fill:#bac6e9;fill-opacity:1;fill-rule:nonzero;stroke:none"
             d="m 16300,15531.6 h -278.9 c -30.8,0 -55.8,-25 -55.8,-55.8 0,-30.8 25,-55.8 55.8,-55.8 h 278.9 v 0 111.6 0" />
        </g>
        <text
           xml:space="preserve"
           style="font-style:italic;font-variant:normal;font-weight:bold;font-stretch:normal;font-size:24.0169px;font-family:'Ubuntu Mono derivative Powerline';-inkscape-font-specification:'Ubuntu Mono derivative Powerline, Bold Italic';font-variant-ligatures:normal;font-variant-caps:normal;font-variant-numeric:normal;font-variant-east-asian:normal;text-align:center;text-anchor:middle;fill:#619dda;fill-opacity:1;stroke-width:2.62306;stroke-miterlimit:1"
           x="324.4581"
           y="353.74573"
           id="text236-7-0"><tspan
             sodipodi:role="line"
             id="tspan234-8-1"
             style="font-style:normal;font-variant:normal;font-weight:bold;font-stretch:normal;font-size:24.0169px;font-family:Sansation;-inkscape-font-specification:'Sansation, Bold';font-variant-ligatures:normal;font-variant-caps:normal;font-variant-numeric:normal;font-variant-east-asian:normal;fill:#619dda;fill-opacity:1;stroke-width:2.62307"
             x="324.4581"
             y="353.74573">AI/ML</tspan></text>
      </g>
      <g
         id="g62243"
         transform="matrix(0.13807894,0,0,0.13807894,199.07675,240.0847)">
        <g
           id="g62280"
           transform="rotate(-33.889053,122.56192,377.42632)">
          <path
             id="path766"
             style="fill:#bac6e9;fill-opacity:1;fill-rule:nonzero;stroke:none;stroke-width:0.0352777"
             d="m 135.0582,381.56611 c -1.29823,0 -2.35302,-1.05481 -2.35302,-2.35304 V 365.0949 c 0,-1.30175 1.05479,-2.35302 2.35302,-2.35302 1.29823,0 2.35302,1.05127 2.35302,2.35302 v 14.11817 c 0,1.29823 -1.05479,2.35304 -2.35302,2.35304" />
          <path
             id="path768"
             style="fill:#4e567f;fill-opacity:1;fill-rule:nonzero;stroke:none;stroke-width:0.0352777"
             d="m 189.1743,390.97469 c 0,8.70654 -4.29683,16.41121 -10.8867,21.10317 l -2.24367,21.30425 c -0.27871,2.65994 -1.54164,4.99885 -3.40079,6.67454 -6.32884,5.69383 -16.50294,1.79916 -17.39546,-6.67454 l -1.73921,-16.52413 h -36.90054 l -1.73921,16.52413 c -0.2822,2.65994 -1.54162,4.99885 -3.40429,6.67454 -6.32531,5.69383 -16.499409,1.79916 -17.391959,-6.67454 l -2.24366,-21.30425 c -6.58988,-4.69196 -10.88671,-12.39663 -10.88671,-21.10317 0,-14.29104 11.58521,-25.87979 25.879769,-25.87979 10.06123,0 18.77835,5.73617 23.06108,14.11817 7.83873,0 2.50825,0 10.3505,0 4.28273,-8.382 12.99986,-14.11817 23.06109,-14.11817 14.29456,0 25.87976,11.58875 25.87976,25.87979" />
          <path
             id="path770"
             style="fill:#ee2347;fill-opacity:1;fill-rule:nonzero;stroke:none;stroke-width:0.0352777"
             d="m 175.05968,388.62165 v 7.05908 h -7.05908 v 7.05908 h -7.05908 v -7.05908 h -7.05909 v -7.05908 h 7.05909 v -7.05554 h 7.05908 v 7.05554 h 7.05908" />
          <path
             id="path772"
             style="fill:#ee2347;fill-opacity:1;fill-rule:nonzero;stroke:none;stroke-width:0.0352777"
             d="m 116.23397,390.97469 v 9.41211 h -9.4121 v -9.41211 h 9.4121" />
          <path
             id="path774"
             style="fill:#619dda;fill-opacity:1;fill-rule:nonzero;stroke:none;stroke-width:0.0352777"
             d="m 116.23397,381.56611 v 9.40858 h -9.4121 v -9.40858 h 9.4121" />
          <path
             id="path776"
             style="fill:#a1d731;fill-opacity:1;fill-rule:nonzero;stroke:none;stroke-width:0.0352777"
             d="m 106.82187,390.97469 v 9.41211 h -9.412099 v -9.41211 h 9.412099" />
          <path
             id="path778"
             style="fill:#edc927;fill-opacity:1;fill-rule:nonzero;stroke:none;stroke-width:0.0352777"
             d="m 106.82187,381.56611 v 9.40858 h -9.412099 v -9.40858 h 9.412099" />
          <path
             id="path780"
             style="fill:#619dda;fill-opacity:1;fill-rule:nonzero;stroke:none;stroke-width:0.0352777"
             d="m 153.36031,344.43978 c -0.60325,0 -1.2065,-0.22932 -1.66511,-0.68792 -9.17223,-9.17575 -24.10177,-9.17575 -33.274,0 -0.92075,0.91721 -2.40948,0.91721 -3.32668,0 -0.92075,-0.92075 -0.92075,-2.40948 0,-3.33023 11.00666,-11.00667 28.9207,-11.00667 39.92737,0 0.92075,0.92075 0.92075,2.40948 0,3.33023 -0.4586,0.4586 -1.06185,0.68792 -1.66158,0.68792" />
          <path
             id="path782"
             style="fill:#388ed4;fill-opacity:1;fill-rule:nonzero;stroke:none;stroke-width:0.0352777"
             d="m 145.22527,352.57482 c -0.60325,0 -1.2065,-0.22929 -1.66513,-0.69144 -2.26835,-2.2719 -5.28812,-3.52073 -8.50194,-3.52073 -3.21381,0 -6.23358,1.24883 -8.50193,3.52073 -0.92075,0.92075 -2.40948,0.92075 -3.32671,0 -0.92075,-0.91723 -0.92075,-2.40594 -0.003,-3.32669 3.16089,-3.16089 7.36248,-4.90008 11.83216,-4.90008 4.46969,0 8.67127,1.73919 11.83217,4.90008 0.91723,0.92075 0.91723,2.40946 -0.003,3.32669 -0.45863,0.46215 -1.05833,0.69144 -1.66158,0.69144" />
          <path
             id="path784"
             style="fill:#619dda;fill-opacity:1;fill-rule:nonzero;stroke:none;stroke-width:0.0352777"
             d="m 138.38489,359.41519 c -0.60325,0 -1.20296,-0.22931 -1.6651,-0.69146 -0.44098,-0.4445 -1.03365,-0.68791 -1.66159,-0.68791 -0.62793,0 -1.2206,0.24341 -1.66158,0.68791 -0.92075,0.92075 -2.40948,0.92075 -3.33023,0 -0.91721,-0.9172 -0.91721,-2.40593 0,-3.32668 1.3335,-1.3335 3.10798,-2.06727 4.99181,-2.06727 1.88384,0 3.65832,0.73377 4.99182,2.06727 0.9172,0.92075 0.9172,2.40948 0,3.32668 -0.46215,0.46215 -1.06188,0.69146 -1.66513,0.69146" />
        </g>
      </g>
      <g
         id="g62268"
         transform="matrix(1,0,0,-1,-91.236126,552.36999)">
        <g
           transform="matrix(0.01034442,0,0,-0.01034442,128.57358,301.53811)"
           id="g238">
          <path
             id="path240"
             style="fill:#619dda;fill-opacity:1;fill-rule:nonzero;stroke:none"
             d="m 16196.2,4024.29 c -224.1,224.15 -588.9,224.15 -813.1,0 -22.5,-22.5 -58.9,-22.5 -81.3,0 -22.5,22.41 -22.5,58.88 0,81.29 268.9,269.07 706.7,269.07 975.7,0 22.5,-22.41 22.5,-58.88 0,-81.29 -22.4,-22.5 -58.8,-22.5 -81.3,0" />
        </g>
        <g
           transform="matrix(0.01021831,0,0,-0.01021831,128.57358,301.53811)"
           id="g242">
          <path
             id="path244"
             style="fill:#388ed4;fill-opacity:1;fill-rule:nonzero;stroke:none"
             d="m 16194.9,3872.72 c -116.1,116.34 -304.4,116.34 -420.7,0 -22.6,-22.7 -59.6,-22.7 -82.3,0 -22.7,22.69 -22.7,59.61 0,82.3 161.8,161.81 423.6,161.9 585.4,0 22.7,-22.69 22.7,-59.61 0,-82.3 -22.8,-22.7 -59.6,-22.78 -82.4,0" />
        </g>
        <g
           transform="matrix(0.0101475,0,0,-0.0101475,128.57358,301.53811)"
           id="g246">
          <path
             id="path248"
             style="fill:#619dda;fill-opacity:1;fill-rule:nonzero;stroke:none"
             d="m 16137.6,3729.33 c -22.9,22.84 -59.9,22.93 -82.9,0 -22.9,-22.85 -60,-22.85 -82.9,0 -22.9,22.93 -22.9,60.02 0,82.87 123.3,123.3 328.2,-3.25 248.7,-82.87 -23,-22.85 -60.1,-22.85 -82.9,0" />
        </g>
      </g>
    </g>
  </g>
</svg>
